HIERARCHY
ROOT Hips
{
	OFFSET 0.00000 0.00000 0.00000
	CHANNELS 6 Xposition Yposition Zposition Zrotation Yrotation Xrotation 
	JOINT LHipJoint
	{
		OFFSET 0 0 0
		CHANNELS 3 Zrotation Yrotation Xrotation
		JOINT LeftHip
		{
			OFFSET 3.13874 -1.57224 1.49786
			CHANNELS 3 Zrotation Yrotation Xrotation
			JOINT LeftKnee
			{
				OFFSET 2.10955 -5.79594 0.00000
				CHANNELS 3 Zrotation Yrotation Xrotation
				JOINT LeftAnkle
				{
					OFFSET 2.41843 -6.64458 0.00000
					CHANNELS 3 Zrotation Yrotation Xrotation
					JOINT LeftToe
					{
						OFFSET 0.04713 -0.12948 1.66229
						CHANNELS 3 Zrotation Yrotation Xrotation
						End Site
						{
							OFFSET 0.00000 -0.00000 0.85167
						}
					}
				}
			}
		}
	}
	JOINT RHipJoint
	{
		OFFSET 0 0 0
		CHANNELS 3 Zrotation Yrotation Xrotation
		JOINT RightHip
		{
			OFFSET -3.13988 -1.57224 1.49786
			CHANNELS 3 Zrotation Yrotation Xrotation
			JOINT RightKnee
			{
				OFFSET -2.15006 -5.90725 0.00000
				CHANNELS 3 Zrotation Yrotation Xrotation
				JOINT RightAnkle
				{
					OFFSET -2.34496 -6.44273 0.00000
					CHANNELS 3 Zrotation Yrotation Xrotation
					JOINT RightToe
					{
						OFFSET -0.08699 -0.23900 1.55223
						CHANNELS 3 Zrotation Yrotation Xrotation
						End Site
						{
							OFFSET -0.00000 -0.00000 0.80281
						}
					}
				}
			}
		}
	}
	JOINT lowerback
	{
		OFFSET 0 0 0
		CHANNELS 3 Zrotation Yrotation Xrotation
		JOINT Chest
		{
			OFFSET 0.01292 1.96517 -0.16495
			CHANNELS 3 Zrotation Yrotation Xrotation
			JOINT Chest2
			{
				OFFSET 0.02122 1.88666 0.19706
				CHANNELS 3 Zrotation Yrotation Xrotation
				JOINT lowerneck
				{
					OFFSET 0 0 0
					CHANNELS 3 Zrotation Yrotation Xrotation
					JOINT Neck
					{
						OFFSET -0.01683 1.81591 0.07903
						CHANNELS 3 Zrotation Yrotation Xrotation
						JOINT Head
						{
							OFFSET 0.00815 1.74013 -0.47700
							CHANNELS 3 Zrotation Yrotation Xrotation
							End Site
							{
								OFFSET -0.00204 1.83225 -0.16933
							}
						}
					}
				}
				JOINT LeftCollar
				{
					OFFSET 0 0 0
					CHANNELS 3 Zrotation Yrotation Xrotation
					JOINT LeftShoulder
					{
						OFFSET 3.38482 1.41533 0.19802
CHANNELS 3 Zrotation Xrotation Yrotation
						JOINT LeftElbow
						{
OFFSET 0 -4.327120 0.000000
CHANNELS 3 Zrotation Xrotation Yrotation
							JOINT LeftWrist
							{
OFFSET 0 -3.285870 -0.000000
CHANNELS 3 Zrotation Xrotation Yrotation
								JOINT lhand
								{
									OFFSET 0 0 0
CHANNELS 3 Zrotation Xrotation Yrotation
									JOINT LFingers
									{
OFFSET 0 -0.433160 -0.000000
CHANNELS 3 Zrotation Xrotation Yrotation
										End Site
										{
OFFSET 0 -0.349220 -0.000000
										}
									}
								}
								JOINT LThumb
								{
OFFSET 0 0.000000 0.000000
CHANNELS 3 Zrotation Xrotation Yrotation
									End Site
									{
OFFSET 0 -0.354560 0.354560
									}
								}
							}
						}
					}
				}
				JOINT RightCollar
				{
					OFFSET 0 0 0
					CHANNELS 3 Zrotation Yrotation Xrotation
					JOINT RightShoulder
					{
						OFFSET -3.09725 1.62858 -0.14144
CHANNELS 3 Zrotation Xrotation Yrotation
						JOINT RightElbow
						{
OFFSET 0 -4.291040 0.000000
CHANNELS 3 Zrotation Xrotation Yrotation
							JOINT RightWrist
							{
OFFSET 0 -3.227200 -0.000000
CHANNELS 3 Zrotation Xrotation Yrotation
								JOINT rhand
								{
									OFFSET 0 0 0
CHANNELS 3 Zrotation Xrotation Yrotation
									JOINT RFingers
									{
OFFSET 0 -0.543620 -0.000000
CHANNELS 3 Zrotation Xrotation Yrotation
										End Site
										{
OFFSET 0 -0.438280 -0.000000
										}
									}
								}
								JOINT RThumb
								{
OFFSET 0 0.000000 0.000000
CHANNELS 3 Zrotation Xrotation Yrotation
									End Site
									{
OFFSET 0 -0.444970 0.444970
									}
								}
							}
						}
					}
				}
			}
		}
	}
}
MOTION
Frames: 5
Frame Time: 0.008333333333333333
-32.504876 15.727955 3.275694 -175.119486 -4.588276 -173.173958 0.000000 0.000000 0.000000 -4.916647 -19.878097 -21.306993 1.598747 7.974723 22.637482 0.725218 13.303288 -25.869524 11.402382 -18.126234 -64.081234 0.000000 0.000000 0.000000 0.000000 0.000000 0.000000 0.000000 0.000000 0.000000 0.000000 0.000000 0.000000 0.000000 0.000000 0.000000 1.955035 1.580097 4.816164 4.893501 1.686063 -11.110538 4.234335 0.417957 -15.093500 1.367838 5.547050 -14.212750 -4.022647 6.501643 35.265416 -1.128664 1.249042 14.782174 0.000000 0.000000 0.000000 -4.641486 16.306651 4.093191 14.370874 -23.262426 2.973060 14.789941 1.345016 -36.585732 0.000000 0.000000 0.000000 -7.125000 0.000000 0.000000 -25.092698 65.858010 12.950823 0.000000 0.000000 0.000000 -21.239575 16.883872 33.113151 -15.716674 -25.132671 -3.526103 -30.447197 -35.062664 30.599190 0.000000 0.000000 0.000000 7.125000 0.000000 0.000000 1.088335 64.431178 -0.486673
-32.503678 15.730718 3.273632 -175.345424 -4.576321 -173.045092 0.000000 0.000000 0.000000 -5.193785 -20.316639 -21.171590 1.574343 7.916524 22.460893 0.638041 13.987427 -25.871904 11.421566 -18.135174 -64.142977 0.000000 0.000000 0.000000 0.000000 0.000000 0.000000 0.000000 0.000000 0.000000 0.000000 0.000000 0.000000 0.000000 0.000000 0.000000 1.660571 1.583586 4.705793 4.825312 1.649195 -11.122039 4.327484 0.432016 -15.041463 1.514145 5.553470 -14.188350 -3.703176 6.370601 35.260991 -1.041019 1.268792 14.758900 0.000000 0.000000 0.000000 -4.879436 16.551380 1.264100 14.449058 -23.372409 3.004408 11.603623 2.839046 -36.122107 0.000000 0.000000 0.000000 -7.125000 0.000000 0.000000 -27.972696 64.574384 13.677249 0.000000 0.000000 0.000000 -21.010183 17.194425 35.165656 -16.091167 -25.641914 -3.686580 -29.057463 -35.199015 30.062415 0.000000 0.000000 0.000000 7.125000 0.000000 0.000000 2.583740 63.480127 -1.126329
-32.502864 15.732030 3.270420 -175.582040 -4.542434 -172.928820 0.000000 0.000000 0.000000 -5.487542 -20.695632 -21.014283 1.548872 7.855040 22.274722 0.594835 14.436545 -26.011974 11.351576 -18.102690 -63.917762 0.000000 0.000000 0.000000 0.000000 0.000000 0.000000 0.000000 0.000000 0.000000 0.000000 0.000000 0.000000 0.000000 0.000000 0.000000 1.358852 1.584310 4.568754 4.753920 1.608658 -11.116564 4.420139 0.445227 -14.951205 1.666475 5.566816 -14.159350 -3.358160 6.238901 35.248052 -0.944066 1.293087 14.730533 0.000000 0.000000 0.000000 -5.045927 16.836767 -1.444633 14.671830 -23.685982 3.093580 6.954638 4.627511 -35.793378 0.000000 0.000000 0.000000 -7.125000 0.000000 0.000000 -32.417594 63.068139 14.891049 0.000000 0.000000 0.000000 -20.857672 17.494109 37.299860 -16.494546 -26.183190 -3.863567 -27.392871 -35.093691 29.390525 0.000000 0.000000 0.000000 7.125000 0.000000 0.000000 4.269867 62.332879 -1.749448
-32.501724 15.733484 3.266882 -175.798122 -4.505443 -172.823149 0.000000 0.000000 0.000000 -5.754479 -21.065835 -20.845065 1.524043 7.794925 22.092817 0.568540 14.802925 -26.196066 11.248715 -18.053854 -63.585511 0.000000 0.000000 0.000000 0.000000 0.000000 0.000000 0.000000 0.000000 0.000000 0.000000 0.000000 0.000000 0.000000 0.000000 0.000000 1.068493 1.582571 4.426182 4.693021 1.567269 -11.102893 4.517862 0.457194 -14.847450 1.822011 5.582834 -14.130149 -3.018169 6.111258 35.234370 -0.849224 1.318518 14.702634 0.000000 0.000000 0.000000 -5.185406 17.124525 -4.183809 14.890946 -23.993753 3.181676 3.093425 6.658179 -35.115283 0.000000 0.000000 0.000000 -7.125000 0.000000 0.000000 -35.704654 61.485960 15.439214 0.000000 0.000000 0.000000 -20.716196 17.776614 39.395250 -16.896321 -26.719875 -4.041180 -25.779757 -34.828393 28.725780 0.000000 0.000000 0.000000 7.125000 0.000000 0.000000 5.876286 61.214462 -2.314086
-32.499145 15.735565 3.261905 -175.923442 -4.454726 -172.764334 0.000000 0.000000 0.000000 -5.902873 -21.397188 -20.623198 1.502056 7.740861 21.929764 0.616994 14.803604 -26.574743 11.000563 -17.932741 -62.780157 0.000000 0.000000 0.000000 0.000000 0.000000 0.000000 0.000000 0.000000 0.000000 0.000000 0.000000 0.000000 0.000000 0.000000 0.000000 0.828348 1.569949 4.259148 4.678498 1.522118 -11.052991 4.637980 0.463663 -14.684035 1.991714 5.610657 -14.100063 -2.700389 6.001546 35.217404 -0.763716 1.348966 14.676801 0.000000 0.000000 0.000000 -5.205494 17.422761 -7.057540 15.093902 -24.275883 3.265012 2.714161 9.759387 -32.892993 0.000000 0.000000 0.000000 -7.125000 0.000000 0.000000 -33.874069 59.568149 13.045275 0.000000 0.000000 0.000000 -20.623495 17.983189 41.319078 -17.291013 -27.236268 -4.221561 -24.394174 -33.856005 28.092618 0.000000 0.000000 0.000000 7.125000 0.000000 0.000000 7.130396 60.223480 -2.620239
